<?xml version="1.0" standalone="no"?>
<!DOCTYPE svg PUBLIC "-//W3C//DTD SVG 20010904//EN"
 "http://www.w3.org/TR/2001/REC-SVG-20010904/DTD/svg10.dtd">
<svg version="1.0" xmlns="http://www.w3.org/2000/svg"
 width="200.000000pt" height="200.000000pt" viewBox="0 0 200.000000 200.000000"
 preserveAspectRatio="xMidYMid meet">

<g transform="translate(0.000000,200.000000) scale(0.100000,-0.100000)"
fill="#000000" stroke="none">
<path d="M940 1901 c-102 -31 -166 -110 -177 -217 -7 -69 16 -132 70 -191 22
-24 34 -43 28 -43 -21 0 -94 -75 -112 -115 -41 -96 -33 -209 31 -429 36 -121
120 -356 152 -422 12 -26 19 -29 70 -32 69 -4 69 -3 126 148 181 479 203 673
91 795 -23 25 -49 47 -60 50 -17 6 -15 10 16 39 93 88 101 238 18 336 -63 73
-168 107 -253 81z m157 -155 c26 -28 33 -44 33 -76 0 -81 -49 -130 -130 -130
-56 0 -109 48 -117 106 -16 123 130 191 214 100z m7 -408 c67 -30 82 -128 43
-289 -26 -105 -92 -311 -126 -391 l-17 -40 -52 148 c-141 402 -144 551 -10
585 40 10 128 3 162 -13z"/>
<path d="M625 660 c-252 -45 -393 -109 -441 -201 -18 -36 -18 -122 0 -157 51
-98 195 -162 446 -199 146 -21 566 -24 719 -5 294 38 462 121 491 243 29 119
-63 216 -261 277 -88 27 -322 66 -352 58 -13 -3 -29 -18 -36 -33 -10 -23 -9
-30 7 -52 16 -22 34 -28 153 -47 362 -60 477 -162 285 -253 -223 -107 -893
-121 -1195 -26 -192 61 -200 160 -18 223 67 24 216 56 311 67 88 11 122 59 76
105 -24 24 -52 24 -185 0z"/>
<path d="M668 488 c-74 -20 -107 -76 -73 -125 36 -51 229 -79 490 -70 242 9
336 36 343 101 5 43 -22 73 -80 91 -103 30 -160 16 -160 -39 0 -31 -25 -36
-187 -36 -142 0 -171 5 -171 29 0 9 -7 27 -16 39 -12 18 -24 22 -62 21 -26 -1
-64 -5 -84 -11z"/>
</g>
</svg>
